<svg xmlns="http://www.w3.org/2000/svg" width="143mm" height="134mm" viewBox="0 0 143 134" shape-rendering="geometricPrecision" text-rendering="geometricPrecision" image-rendering="optimizeQuality" fill-rule="evenodd" clip-rule="evenodd"><defs><style>.fil0{fill:#1d1e1c;fill-rule:nonzero}</style></defs><g id="Layer_x0020_1"><path class="fil0" d="M82.229 97.153c.716-.18 1.46-.126 2.19-.082.599.035 1.196.103 1.788.207-.022.899.02 1.8-.022 2.7-.644-.75-1.272-1.514-1.903-2.274-.494-.137-1.016-.2-1.527-.125-.378.058-.752.251-.956.585a1.33 1.33 0 0 0 .105 1.5c.366.46.873.78 1.364 1.092.859.521 1.763.981 2.545 1.62.391.328.764.71.95 1.195.178.461.145.975.037 1.45a2.538 2.538 0 0 1-.967 1.408c-.687.505-1.545.722-2.384.781-1.163.047-2.323-.099-3.478-.21.002-.943-.005-1.885.003-2.828.133.094.223.233.326.357l1.454 1.801c.097.128.272.143.413.2.71.239 1.527.286 2.212-.057.688-.321.988-1.22.687-1.905-.176-.39-.506-.682-.84-.936-.869-.653-1.884-1.073-2.762-1.713-.524-.38-1.04-.824-1.31-1.426-.288-.667-.237-1.479.161-2.091.426-.663 1.16-1.071 1.914-1.249zm28.57.02c.22-.036.445-.024.668-.025h2.193c.803.003 1.611-.025 2.407.098.773.116 1.564.362 2.148.904.4.366.64.874.739 1.401v1.158c-.148.889-.812 1.613-1.608 1.992-1.104.553-2.37.58-3.579.559l.001 2.947c.422.29.869.546 1.27.865-.654.047-1.312.009-1.967.021-.757-.012-1.516.026-2.272-.02.32-.305.668-.577 1.003-.864.005-2.715.001-5.431.003-8.147-.335-.297-.68-.583-1.007-.89zm2.968.518v5.04c.428-.008.857.017 1.285-.023.515-.052 1.036-.258 1.375-.662.353-.423.496-.98.524-1.521.033-.59-.01-1.204-.269-1.743a1.802 1.802 0 0 0-1.096-.936c-.585-.199-1.211-.149-1.819-.155zm-25.846-.521c.539-.049 1.083-.01 1.623-.022.772.008 1.544-.015 2.315.011-.013.069-.07.11-.116.153-.288.249-.574.5-.86.752v3.685h4.482c.001-1.227-.002-2.454.002-3.681-.282-.255-.57-.501-.855-.75a.49.49 0 0 1-.128-.163c1.185-.016 2.37-.001 3.555-.008.129 0 .261-.007.387.033-.326.304-.668.587-1 .884.005 2.71-.003 5.421.005 8.131.317.303.674.565.996.864-.124.043-.255.035-.382.035-1.187-.006-2.374.008-3.56-.007.05-.112.152-.182.243-.259.247-.204.486-.418.737-.618.002-1.297 0-2.595 0-3.893-1.493.004-2.988 0-4.481.002 0 1.298-.002 2.595 0 3.892.223.177.435.366.653.548.116.103.25.19.337.321-.846.029-1.695.005-2.542.013-.47-.012-.942.025-1.41-.02.311-.311.663-.576.996-.863.005-2.715 0-5.432.003-8.148-.332-.3-.685-.576-1-.892zm-18.55-.002c.2-.032.404-.018.607-.02 1.248.003 2.496-.005 3.744.004.93.028 1.9.158 2.71.65.507.304.913.794 1.058 1.374.177.663.094 1.406-.29 1.984-.43.654-1.14 1.076-1.878 1.301.81 1.22 1.607 2.447 2.419 3.665.43.334.91.605 1.35.929-.214.07-.443.027-.663.038-1.077-.01-2.155.02-3.23-.014.157-.238.353-.448.525-.676-.753-1.218-1.498-2.443-2.262-3.655-.367-.046-.755-.005-1.13-.018v3.48c.27.203.53.419.797.625.091.075.198.14.249.252-1.187.015-2.374 0-3.561.007-.15 0-.302.004-.45-.024.317-.304.665-.575 1-.86.005-2.716 0-5.432.002-8.148-.33-.3-.686-.574-.998-.894zm2.96.523v4.508c.744-.007 1.527.057 2.224-.258.496-.217.844-.697.95-1.222a3.716 3.716 0 0 0-.05-1.81 1.582 1.582 0 0 0-.964-1.04c-.69-.258-1.44-.157-2.16-.178zm-12.266-.52c.184-.034.37-.022.557-.023h7.23c-.005.926.013 1.852-.008 2.777-.647-.715-1.254-1.466-1.887-2.194h-2.93v4.03c.927-.003 1.853.007 2.78-.004.418-.362.763-.81 1.18-1.177.01 1.02.004 2.04.002 3.06-.405-.42-.772-.875-1.154-1.316-.936-.011-1.872-.002-2.808-.005v4.217c1.01-.003 2.021.006 3.032-.004.14-.105.231-.262.352-.388.526-.601 1.024-1.229 1.567-1.814.018.921.003 1.842.008 2.763h-7.743c-.045-.012-.22.01-.13-.075.308-.277.63-.54.949-.808.005-2.716 0-5.432.002-8.148-.332-.299-.683-.577-1-.891zM50.6 97.17c.184-.032.37-.021.555-.022h2.624c1.082-.004 2.194-.008 3.23.349.589.203 1.147.606 1.37 1.207.235.65.223 1.424-.164 2.014-.4.626-1.089 1.004-1.782 1.22.728.125 1.479.376 2.015.908.416.404.612 1 .571 1.574-.014.6-.24 1.206-.685 1.62-.506.48-1.187.716-1.857.86-1.329.27-2.69.175-4.037.193-.606-.013-1.216.026-1.82-.02.022-.07.088-.111.14-.159.28-.233.555-.472.837-.703.006-2.716 0-5.433.003-8.15-.332-.298-.685-.575-1-.891zm2.963.509v4.044c.605-.012 1.234.058 1.813-.162.377-.13.703-.407.88-.767.239-.5.261-1.081.182-1.623-.074-.51-.373-.998-.844-1.228-.625-.327-1.35-.257-2.031-.264zm0 4.56v4.336c.793-.014 1.63.078 2.374-.26.442-.189.78-.583.915-1.043a3.21 3.21 0 0 0 .033-1.596 1.714 1.714 0 0 0-.93-1.175c-.745-.36-1.594-.24-2.392-.262zM40.389 97.17c.13-.022.263-.024.395-.023 1.355.007 2.71-.007 4.066.008 1.028.042 2.128.218 2.945.894.928.76 1.065 2.259.357 3.21-.437.599-1.11.988-1.809 1.202.809 1.22 1.607 2.446 2.418 3.664.43.334.91.606 1.35.93-.214.07-.443.027-.663.038-1.077-.01-2.155.02-3.23-.015.16-.237.353-.447.526-.675-.707-1.153-1.422-2.301-2.13-3.455-.048-.072-.085-.155-.15-.215-.371-.01-.742 0-1.112-.004 0 1.16-.002 2.322.001 3.482.269.201.527.417.793.622.092.075.2.141.252.253-1.186.016-2.373.002-3.559.007-.15.002-.303.005-.452-.024.317-.303.665-.574.999-.858.006-2.716 0-5.433.003-8.15-.332-.298-.684-.576-1-.891zm2.962.52v4.51c.72-.008 1.47.052 2.152-.227.451-.176.807-.562.958-1.02a3.693 3.693 0 0 0 .073-1.823c-.095-.514-.419-.995-.904-1.21-.715-.323-1.518-.206-2.279-.23zm-9.908-.542c.674.002 1.347-.003 2.02.003 1.147 2.994 2.311 5.982 3.462 8.975.066.2.28.284.423.421.2.183.45.315.61.536-1.221.023-2.445.003-3.667.01-.148-.001-.3.014-.443-.034.323-.28.66-.543.99-.816-.322-.852-.636-1.707-.958-2.559-1.19 0-2.379.002-3.568 0-.28.82-.574 1.636-.86 2.454.475.306.96.597 1.426.914-.12.058-.256.038-.385.042-.988-.006-1.976.008-2.963-.007a.392.392 0 0 1 .133-.153c.322-.233.64-.47.963-.703.057-.045.128-.085.15-.16.99-2.7 1.978-5.401 2.973-8.1-.102-.274-.206-.548-.305-.823zm-.912 5.952c1.046.004 2.091.002 3.137 0-.54-1.437-1.069-2.877-1.617-4.31a755.958 755.958 0 0 0-1.52 4.31zm-11.315-5.942c1.228-.023 2.457-.003 3.686-.01.972.006 1.974.052 2.885.421.532.217 1.009.62 1.202 1.174.217.643.2 1.4-.182 1.979-.402.624-1.088 1-1.78 1.216.621.104 1.244.305 1.755.681a2 2 0 0 1 .817 1.364c.063.587-.038 1.211-.374 1.707-.345.512-.905.834-1.479 1.028-1.017.335-2.1.378-3.163.375-1.122-.009-2.245.018-3.367-.013v-.042c.302-.273.625-.523.928-.794.072-.05.04-.15.051-.223-.003-2.653 0-5.306-.001-7.96-.326-.286-.656-.567-.978-.858v-.045zm2.94.52c.001 1.349 0 2.697.002 4.046.554-.013 1.124.047 1.663-.113.38-.106.736-.334.947-.674.303-.487.34-1.09.281-1.647-.051-.538-.334-1.075-.826-1.329-.631-.347-1.373-.276-2.066-.282zm0 4.56v4.337c.795-.014 1.632.078 2.376-.261.441-.189.78-.583.915-1.042a3.206 3.206 0 0 0 .033-1.593 1.715 1.715 0 0 0-.931-1.178c-.744-.36-1.594-.24-2.392-.262zm79.641-5.16c1.24-.177 2.551.043 3.63.692a4.697 4.697 0 0 1 1.992 2.4c.427 1.152.425 2.444.063 3.612a4.804 4.804 0 0 1-1.568 2.275c-1.867 1.518-4.777 1.56-6.683.09a4.734 4.734 0 0 1-1.655-2.534 5.642 5.642 0 0 1 .228-3.52c.659-1.632 2.265-2.782 3.993-3.015zm.052.533a2.443 2.443 0 0 0-.795.32c-.76.47-1.19 1.32-1.396 2.164a7.856 7.856 0 0 0 .033 3.622c.24.953.689 1.91 1.494 2.51.94.717 2.383.64 3.248-.163.647-.59.969-1.448 1.122-2.29.216-1.326.129-2.716-.348-3.977-.298-.761-.775-1.493-1.494-1.913-.555-.332-1.237-.405-1.864-.273zM41.767 15.066c-.186.871-.33 1.664-.457 2.393 7.59-1.037 15.67.022 20.234 1.74-5.504-1.4-14.44-2.063-20.404-.75a37.322 37.322 0 0 1-.333 1.753c6.123-1.095 15.677-.705 21.767 1.296 1.571.5 3.964 1.693 5.021 3.21.354.507.577 1.12.433 1.67-.055-.486-.322-1.145-.636-1.505-.988-1.133-2.32-2.227-4.877-3.047-5.264-1.687-11.899-1.655-17.517-1.228-1.51.115-2.777.227-4.179.435-2.39.355-4.828.955-4.928 1.807-.071.605.946 1.484 4.427 1.833-.098.366-.121.777-.008 1.143.179.465.257.754.476 1.2.116.255.002.694-.12.89-.522.816-1.116 1.65-1.75 2.69-.357.662-.709 1.106-.616 1.562.063.307.358 1.02 1.38.924.286-.03.496.198.588.443-.845.456-.562 1.415-.07 1.674.025.013.052.026.08.038.022.055.04.11.05.168-.125.249-.398.434-.402.732-.031.14.04.27.135.372.312.346.593.717.835 1.11-.517.473-.933 1-.971 1.511-.115 1.54 1.326 2.091 2.786 2.12.497.01 1.054-.035 1.65-.12 2.179.087 3.098-.35 3.376 2.666.12.546.156 1.108.224 1.663-.19.318-.52.538-.778.805-1.727 1.507-3.527 2.962-4.998 4.707-.534.648-1.027 1.33-1.393 2.078-1.152 2.848-1.787 3.942-2.799 7.103h6.179c-.813-1.915.002-4.463 2.444-5.051.704-.174 1.276-.156 1.987-.14l.054.001.055.003c.965.053 1.942.012 2.91.028.214.001.422.018.622.05 1.9-.44 3.98-.05 5.738.844a8.184 8.184 0 0 1 3.91 4.368c.091-.007.183-.01.275-.01H85.08c.27 0 .535.028.789.082.572-1.505 1.936-2.557 3.63-2.46a3.528 3.528 0 0 1 1.35-2.064l.078-.059.082-.054c.78-.522 1.486-.653 2.391-.698.978-.074 1.905.005 2.878.029 1.496.017 2.876.74 3.59 2.099l.017.032.016.034c.402.806.517 1.598.534 2.484l.001.085-.002.086-.01.307h2.84c-.005-.085.012-.142.057-.163-.015-.337-3.198-6.629-3.322-6.936-.366-.747-.86-1.43-1.393-2.077-1.471-1.746-3.27-3.201-4.998-4.708-.258-.267-.587-.487-.777-.805.067-.555.102-1.117.223-1.663.285-3.093 1.245-2.554 3.546-2.674.465-.012 1.958.014 2.726-.137 1.303-.507 1.412-2.442.457-3.178.265-.463.586-.897.947-1.298.095-.102.166-.231.135-.371-.004-.299-.277-.484-.402-.733.053-.308.347-.573.25-.904-.066-.133-.154-.268-.208-.41a.971.971 0 0 0-.039-.136.52.52 0 0 1 .01-.24c.035-.3.275-.671.636-.633 1.021.097 1.316-.617 1.379-.924.093-.456-.212-.925-.617-1.561-.652-1.028-1.294-1.86-1.75-2.691-.146-.196-.269-.635-.119-.89.22-.446.297-.735.475-1.2.115-.366.145-.533.082-.876 3.688-.088 5.65-1.261 5.53-2.184-.105-.806-1.795-1.143-6.008-1.725-1.393-.193-2.997-.335-4.291-.433-6.786-.516-15.053-.455-20.599 2.514-1.302.7-2.505 1.637-3.28 2.871-.227.351-.386.735-.584 1.101.016-.401.24-.752.42-1.103.932-1.632 2.588-2.92 4.316-3.713 5.87-2.9 16.767-3.307 23.823-2.02a30.827 30.827 0 0 1-.333-1.82c-5.963-1.285-14.834-.623-20.309.77 4.55-1.711 12.593-2.769 20.162-1.749-.484-3.375-.932-8.035-.974-10.092-.015-.726.062-1.461-.1-2.178-.205-.666-.823-1.133-1.5-1.334C91.35 2.2 79.478 3.35 75.338 7.22c-.247.21-.2.549-.2.831.035.984.528 1.876.755 2.82.54 2.256.78 8.064.848 10.417-3.47 1.847-4.937 3.444-5.56 5.507-1.032 4.096 3.69 4.491 7.133 4.522l.005.011c.363 1.314 1.724 3.226 2.104 4.745.088.351.058.647.111.808.015.275.034.648.034.67-.262.025-.333.086-.561.233-.407.237-.637.677-.749 1.106-.347.919-.647 1.854-1.02 2.764-.206.108-.476.04-.695.134-.613.277-1.05.8-1.376 1.35a79.039 79.039 0 0 0-2.268 3.859l.178.083c2.617 1.021 5.206 2.12 7.704 3.388 1.103.585 2.233 1.161 3.162 1.99-1.058-.693-2.185-1.28-3.33-1.83-2.442-1.152-5.206-1.972-7.775-2.843-.292.261-1.514 2.005-3.038 4.256-1.904-2.246-3.387-3.966-3.637-4.19-2.569.872-5.543 1.625-7.985 2.776-1.145.55-2.272 1.138-3.33 1.83.929-.828 2.059-1.404 3.162-1.989 2.498-1.269 5.087-2.367 7.705-3.388.06-.027.118-.056.177-.084a78.87 78.87 0 0 0-2.268-3.858c-.327-.55-.763-1.074-1.376-1.35-.22-.094-.489-.026-.695-.134-.373-.91-.672-1.845-1.02-2.765-.112-.428-.342-.868-.749-1.105-.228-.147-.299-.208-.561-.232 0-.023.02-.397.033-.671.054-.161.025-.457.113-.808.41-1.641 1.966-3.741 2.17-5.05.212-.683.56-1.818.583-1.867 6.978-.176 7.2-4.895.904-7.822.035-1.22.097-2.496.286-4.187 1.036-9.255-20.381-12.216-22.546-2.081zM98.6 33.328c-1.12.071-1.873.563-2.807.448-1.183-.146-1.806-.587-1.715-1.674.042-.493.145-.99-.507.081-.971 1.597.815 4.397 4.028 3.71.206-.044.656-.172 1.14-.329.112-.007.221-.01.323-.01.347-.034.69-.101 1.041-.105.494.433.906 1.123-.161 1.049-.551.049-1.068-.158-1.597-.265.042.449.015.457.233.86.245.198.464.387.751.51.74.518 1.227 2.413.042 2.937-.451.249-.98.07-1.458.01-.402-.025-.773-.185-1.167-.254-3.256-.66-3.947.894-8.622-.153-1.915-.429-4.109-.989-5.77-1.598-1.223-.448-1.344-1.045-1.464-1.567.12-.037.28-.107.49-.215.439-.223.781-.518 1.178-.571 1.18-.158 3.012-1.851 3.207-3.16.108-.72.385-1.79.625-2.37.511.651 1.483 1.05 2.62.727.16-.045-.017-.163-.03-.17-1.702.457-2.154-.25-2.453-1.277-.136-.605-.504-1.082-.978-1.678-1.177-1.476 1.662-3.834 3.116-1.451.112.424.162 1.048.338 1.394-.12 1.06-.065.393.181 2.363.096.767.236 1.43.312 2.082.444-.146 1.235.314 2.582.476-.222-1.015-.856-2.623-1.08-3.514-.716-2.844 1.695-3.162 1.955-3.686.692-1.582 1.536-2.234 4.722-1.872.872.1 1.739.288 2.538.666.056.21.127.42.134.64-.005.24-.097.469-.175.695-.033-.144-.055-.29-.1-.43-.897-.949-2.631-.76-3.578.022-.7.579-1.225 1.034-1.813 1.71.982.05 1.473.124 2.234.063.13.05.582-.344.716-.304.078.024-.034.455.046.474l.098.02c.51.104.67-.03.81-.486l.14-.459.156-.364.388.004.723.007c-.266.8-.448 1.164.008 1.927l.521.869c.129.162.23.35.326.521.243.4 1.27 1.83 1.322 2.2.106.776-.782.918-1.325.967-.427-.017-.826.055-1.163.272a.91.91 0 0 1-1.059 0 2.583 2.583 0 0 1-.39-.55c-.059.256.11.561.232.69.04.042.087.081.136.118zM85.93 27.03c-.04.045.195.095.268-.07.207-.466 1.131-.39 1.538.048.093.1.238.268.291.514.087.403.257.559-.04.944-.35.451.532.293.662 1.072.09.537.252-.46-.065-.771-.148-.145-.06-.293-.085-.53-.107-1.041-.538-1.501-1.246-1.727-.295-.093-.673-.081-1.115.31a2.42 2.42 0 0 0-.209.21zm-5.593-9.285c-.2-2.863-.424-5.751-.819-8.818-.207-1.62-1.194-2.028.4-2.676a14.325 14.325 0 0 1 2.023-.638c.327 3.695.655 7.665.983 11.359-.824.185-1.715.409-2.587.773zm18.025 8.061c.152.083.295.183.43.288-.885.402-1.727.974-2.727 1.072-.002-.042-.685.097-.687.056.985-.199 2.216-1.018 2.984-1.416zM80.09 38.138l.104-.011c.462.37 1.027.59 1.567.838 2.271.953 4.604 1.765 6.939 2.566.906.333 1.843.588 2.74.944.371.396.463.942.655 1.425.126.518.301 1.023.387 1.55.145.382.161.79.255 1.183.17.475.136.99.298 1.465.022.087.04.175.054.265-.201-.028-.262-.221-.35-.364-.229-.467-.466-.931-.678-1.405-.287-.17-.618-.252-.938-.344-3.6-1.166-7.226-2.271-10.751-3.637-.497-.216-1.02-.4-1.463-.71-.19-.15-.101-.416-.089-.617.267-1.1.813-2.113 1.27-3.148zm4.009 7.605c.334.122.621.328.936.488 1.038.532 2.11 1.004 3.117 1.592a198.82 198.82 0 0 1 5.671 2.176l.083.096c.03.588.005 1.18.025 1.77.132.726.055 1.469.083 2.204l-.169-.086c-3.247-2.747-6.494-5.495-9.746-8.24zM51.794 28.26c.28-.603.069-1.156.519-1.72 1.512-1.89 4.04.284 2.93 1.725-.465.603-.843 1.073-.979 1.678-.299 1.026-.75 1.734-2.454 1.277-.012.007-.189.125-.029.17 1.137.322 2.109-.076 2.62-.727.24.58.517 1.65.625 2.37.195 1.309 2.027 3.002 3.207 3.16.397.053.74.348 1.177.571.304.155.453.222.581.237-.51 1.36-1.664 1.65-3.026 2.064-1.373.416-2.909.774-4.298 1.079-2.365.52-3.71.384-4.883.209 5.135-1.486 4.785-2.563 4.216-6.172-.485-3.073-.56-2.233-.393-3.61.236-1.937.296-1.324.187-2.311zm3.068-1.229c.04.045-.196.095-.269-.07-.207-.466-1.131-.39-1.538.048-.092.1-.238.268-.29.514-.048.219-.063.39-.02.564.036.147.114.294.25.47.35.452-.723.203-.853.982-.09.537-.252-.46.066-.771.245-.24-.107-.487.275-1.143.064-.11-.008-.258.161-.449.068-.076.157-.267.326-.357.246-.13.853-.733 1.683.001.068.06.138.13.209.211zm-11.869 9.016c-.36.105-.895.268-1.003.296-.374.096-.748.19-1.14.156-1.068.074-.656-.616-.162-1.049.351.004.694.071 1.041.105.046 0 .092.002.137.005.131.018.259.037.378.057a2.81 2.81 0 0 1 .775.316.16.16 0 0 1 .011.059c0 .013-.013.031-.037.055zm-.523-2.904a.923.923 0 0 0 .21-.6c-.114.112-.395.417-.511.527a.91.91 0 0 1-1.059.001c-.337-.217-.736-.289-1.163-.272-.543-.05-1.431-.191-1.325-.966.051-.372 1.079-1.8 1.322-2.2.096-.172.197-.36.326-.522l.562-.937c.409-.684.153-1.131-.032-1.858l.722-.008.388-.004c.01.209.066.413.144.616.2.52.295.814.94.684l.098-.022c.051-.012.024-.192.018-.327-.003-.076 0-.138.029-.146.133-.04.608.364.737.314.76.061 1.252-.013 2.235-.063-.59-.676-1.114-1.131-1.814-1.71-.946-.781-2.68-.971-3.578-.022-.044.14-.067.286-.1.43-.078-.226-.17-.455-.175-.696.008-.218.078-.428.134-.639.762-.36 2.113-.526 2.885-.59 1.408-.12 2.927-.12 3.043.199.008.024 1.128 1.184 1.332 1.597.26.524 2.67.842 1.955 3.686-.218.864-.82 2.403-1.06 3.422-.607.53-1.302.94-1.994 1.157a4.013 4.013 0 0 1-.41.107 3.527 3.527 0 0 1-.422.059 2.536 2.536 0 0 1-1.266-.209c-.856-.395-.928-.825-2.148-1.005a.333.333 0 0 0-.024-.003zm1.944-16.74c.714-3.43 2.542-6.168 9.066-6.647-4.028.858-5.68 3.63-6.4 6.527-1.16.069-1.505.052-2.666.12zm-1.985 9.404c.768.398 1.999 1.217 2.984 1.416-.002.041-.685-.098-.687-.056-1-.098-1.842-.67-2.728-1.072.137-.106.28-.205.431-.288zm18.272 12.332c.456 1.035 1.002 2.048 1.269 3.148.013.2.102.466-.089.617-.444.31-.965.494-1.463.71-3.525 1.365-7.15 2.471-10.751 3.637-.32.091-.65.174-.937.344-.213.474-.45.938-.68 1.405-.087.143-.148.336-.348.364.013-.09.03-.178.053-.265.163-.476.128-.99.298-1.465.094-.393.11-.801.255-1.183.086-.527.262-1.032.387-1.55.192-.483.284-1.029.656-1.425.896-.356 1.833-.61 2.74-.944 2.334-.801 4.667-1.612 6.938-2.566.54-.248 1.105-.468 1.567-.839l.105.012zm-4.01 7.605c-3.252 2.744-6.499 5.493-9.747 8.24l-.168.086c.028-.735-.049-1.478.083-2.205.02-.59-.005-1.18.025-1.769l.083-.096c1.877-.756 3.77-1.478 5.671-2.177 1.007-.587 2.08-1.059 3.117-1.591.315-.16.602-.366.936-.488z"/><path class="fil0" d="M3.053 57.689h.09-.088c.253.083.423.282.599.466.163.18.413.213.638.254.581.096 1.173.078 1.76.08 1.047.006 2.094-.047 3.141-.041 1.02-.008 2.042.05 3.062.04.668-.002 1.348.022 2-.15.362-.088.486-.525.852-.609a.696.696 0 0 1-.005-.04h.103c.253.587.234 1.24.314 1.864.059.952.285 1.88.468 2.813.163.733.446 1.48.29 2.24-.038.17-.263.382-.398.175-.364-.486-.494-1.096-.705-1.654-.378-1.11-.92-1.935-1.614-2.88-.296-.4-.696-.809-1.226-.831-.396-.014-.809-.07-1.195.043-.298.087-.323.451-.334.71-.003 2.633.004 5.038-.003 7.672-.064 1.155-.023 2.313-.027 3.47.019 4.4.037 8.801.03 13.203.009.57.02 1.143.071 1.712.017.398.378.656.724.773.165.076.406.102.462.306.097.193-.085.411-.285.411-.54.06-1.084-.006-1.625-.012-1.071-.01-2.141-.01-3.21.037-.313-.011-.764.059-.892-.317.112-.425.628-.37.909-.624.31-.192.364-.576.366-.91.018-1.693-.024-3.387.042-5.08.008-1.207-.018-2.415.037-3.623.008-1.827.004-3.653.003-5.48-.073-2.148-.016-4.297-.01-6.446.02-1.88.008-3.532.012-5.414.012-.145-.025-.321-.19-.362-.428-.133-.89-.09-1.332-.069-.505.014-.896.39-1.185.768-.492.642-.883 1.128-1.232 1.855-.345.733-.543 1.522-.858 2.266-.09.2-.185.41-.358.55-.193.067-.306-.174-.335-.325-.091-.638.076-1.273.242-1.884.172-.728.304-1.466.44-2.203.109-.779.129-1.57.265-2.346a.808.808 0 0 1 .187-.408zm3.62 33.676h127.811c.213 0 .387.174.387.387a.388.388 0 0 1-.387.387H6.672a.388.388 0 0 1-.386-.387c0-.213.174-.387.386-.387zm17.885-27.84h20.69a.388.388 0 0 1 0 .773h-20.69a.388.388 0 0 1-.386-.386c0-.213.174-.387.386-.387zm75.315-.004h34.805c.212 0 .386.174.386.387a.388.388 0 0 1-.386.387H99.873a.388.388 0 0 1-.387-.387c0-.213.174-.387.387-.387zm-37.706.097H85.08c.213 0 .387.174.387.386a.388.388 0 0 1-.387.387H62.167a.388.388 0 0 1-.387-.386c0-.213.174-.387.387-.387zm64.324 4.547c.538.552.78 1.317.882 2.066.149 1.164-.017 2.426-.72 3.396-.443.645-.77.741-1.576.634-1.199-.317-.067-.052-.092-2.81-.026-.718-.103-1.476-.492-2.099-.604-.999-2.234.373-2.302.704-.127.77-.07 1.552-.083 2.327v13.3c.005.338-.018.684.075 1.015.14.342.513.474.837.584.187.048.294.271.232.45-.054.149-.23.177-.366.193-.648.042-1.293-.06-1.94-.068-.838-.032-1.673.127-2.51.057-.172-.021-.392-.04-.474-.218-.07-.213.121-.411.322-.446.359-.097.754-.337.761-.752.107-1.72.053-3.444.06-5.166-.027-3.924-.04-7.848-.035-11.773-.011-.302.026-.662-.21-.893-.186-.195-.457-.265-.7-.36-.222-.07-.288-.415-.088-.548.161-.09.352-.075.53-.085.86-.001 1.719.04 2.578.037.288.003.585-.049.868.028l.066.14c0 .382.004.766-.041 1.147.793-.956 3.29-2.05 4.418-.86zm-16.924-.232c.935-.488 2.025-.598 3.064-.535 1.221.102 2.398.8 2.993 1.885.691 1.252.805 2.723.818 4.127-.06 1.108-.04 2.28-.532 3.305-.892 2.354-4.525 3.03-5.619 1.412a95.74 95.74 0 0 0 .09 5.204c.049.922.32 1.88.972 2.562.533.576 1.4.851 2.158.612.996-.302 1.803-1.898 1.824-2.978.11-1.031.907-1.094.76.062-.064.492-.279 1.657-.43 2.133-.514 1.433-1.904 2.256-3.601 2.345-1.128.03-2.238-.385-3.137-1.053a3.981 3.981 0 0 1-1.184-1.443c-.306-.592-.41-1.26-.475-1.916-.105-1.1-.09-2.205-.094-3.31V73.9c-.014-1.252.055-2.533.498-3.719.337-.94.995-1.787 1.895-2.248zm1.24 1.083c-.51.774-.487 1.74-.514 2.629-.003 1.507.018 3.183-.002 4.69-.025 1.86 2.88 2.564 3.28.116.123-.95.063-2.08.078-3.035.02-1.172-.058-2.35-.28-3.502-.1-.437-.212-.893-.496-1.251-.192-.248-.5-.391-.811-.4-.526-.04-.987.33-1.254.753zm-76.554-1.18c.935-.487 2.024-.598 3.064-.535 1.221.102 2.398.8 2.993 1.885.69 1.252.804 2.724.817 4.127-.058 1.109-.04 2.281-.531 3.306-.892 2.353-4.525 3.028-5.62 1.411a95.74 95.74 0 0 0 .09 5.204c.05.923.321 1.88.973 2.562.533.576 1.4.852 2.157.612.997-.302 1.803-1.898 1.824-2.977.11-1.032.908-1.094.76.061-.063.493-.278 1.657-.43 2.133-.514 1.433-1.903 2.257-3.6 2.346-1.129.03-2.238-.385-3.137-1.053a3.982 3.982 0 0 1-1.184-1.443c-.307-.592-.41-1.26-.476-1.916-.104-1.1-.09-2.206-.093-3.31v-6.445c-.015-1.253.055-2.534.498-3.72.336-.94.995-1.787 1.895-2.247zm1.24 1.084c-.51.773-.488 1.738-.515 2.628-.003 1.507.019 3.184-.002 4.691-.025 1.859 2.88 2.564 3.28.116.123-.95.064-2.08.078-3.036.02-1.172-.058-2.349-.279-3.502-.1-.436-.212-.892-.496-1.251-.193-.248-.5-.39-.811-.4-.526-.04-.987.33-1.255.754zm41.926-1.467c1.104-.151 2.28-.01 3.256.548.788.46 1.259 1.282 1.628 2.086.549 1.164.649 2.474.653 3.743.01 2.123.001 4.247.004 6.37-.005 1.37.019 2.743-.108 4.109-.083.892-.312 1.843-.99 2.478-.753.7-1.698 1.216-2.719 1.38-1.706.32-3.542-.289-4.724-1.556-.618-.712-.778-1.685-.85-2.594-.118-1.7-.067-3.404-.08-5.106.008-1.91-.016-3.819.014-5.728.02-1.65.503-3.344 1.582-4.618.595-.661 1.473-.984 2.334-1.112zm.46.775a.983.983 0 0 0-.416.299c-.374.46-.598 1.024-.73 1.596-.212 1.036-.205 2.098-.206 3.15v9.183c-.01 1.05.012 2.104.144 3.147.082.602.323 1.286.932 1.533.534.22 1.23.227 1.674-.19.471-.484.555-1.197.612-1.84.061-1.015.024-2.035.034-3.053-.007-2.606.018-5.21-.016-7.816-.044-1.371.027-2.752-.186-4.113-.099-.574-.258-1.17-.645-1.622-.292-.332-.789-.426-1.196-.274zm-6.882-.063c.537.552.779 1.317.881 2.066.149 1.164-.017 2.426-.72 3.396-.443.645-.77.741-1.576.634-1.198-.317-.067-.052-.092-2.81-.026-.718-.103-1.476-.492-2.099-.604-.999-2.234.373-2.302.704-.127.77-.07 1.552-.083 2.327v13.3c.006.338-.018.684.075 1.015.14.342.513.474.837.584.187.048.294.271.232.45-.054.149-.23.177-.366.193-.648.042-1.293-.06-1.94-.068-.838-.032-1.672.127-2.51.057-.172-.021-.392-.04-.474-.218-.07-.213.122-.411.322-.446.359-.097.754-.337.762-.752.107-1.72.052-3.444.058-5.166-.025-3.924-.038-7.848-.033-11.773-.012-.302.025-.662-.21-.893-.187-.195-.458-.265-.701-.36-.221-.07-.287-.415-.088-.548.162-.09.352-.075.531-.085.86-.001 1.718.04 2.578.037.287.003.584-.049.867.028l.066.14c0 .382.004.766-.04 1.147.792-.956 3.289-2.05 4.418-.86zm64.604-.488c.373-.136.491-.618.912-.675.273.597.235 1.278.322 1.918.063 1.139.401 2.235.654 3.34.059.482.194 1.07-.197 1.452a1.066 1.066 0 0 1-.376-.45c-.31-.663-.498-1.377-.793-2.046-.263-.525-.5-1.07-.871-1.529-.389-.49-.873-.965-1.5-1.113-.565-.105-1.207-.105-1.69.247-.43.312-.591.873-.576 1.383.046.881.551 1.648 1.052 2.343 1.04 1.349 2.226 2.576 3.256 3.932.419.607.835 1.218 1.194 1.864.762 1.336 1.257 2.84 1.289 4.388v.107a8.267 8.267 0 0 1-.329 2.116c-.28.773-.754 1.463-1.32 2.055-.507.576-1.237.906-1.973 1.074-1.34.34-2.85.285-4.05-.454-1.252-.756-2.03-2.193-2.075-3.644-.024-.833.381-1.683 1.08-2.149.696-.473 1.615-.563 2.408-.303.352.089.736.276.813.668-.332.266-.804.107-1.144.352-.506.356-.697 1.003-.685 1.598.008.9.12 1.885.72 2.6.677.781 1.973.723 2.726.084.436-.432.586-1.057.726-1.635a7.021 7.021 0 0 0-.273-3.72c-.524-1.45-1.37-2.76-2.355-3.936a47.974 47.974 0 0 1-1.564-1.975c-.383-.533-.818-1.034-1.113-1.624a6.754 6.754 0 0 1-.755-2.36c-.076-.743.018-1.522.378-2.185.383-.754 1.102-1.314 1.913-1.539.767-.236 1.574-.12 2.351-.008a3.604 3.604 0 0 0 1.845-.176zm-46.01-5.883c0 2.038.02 4.113.027 6.15.585.03 1.206-.048 1.76.18.196.07.184.41-.004.482-.523.233-1.118.19-1.677.2-.008 5.736 0 11.375-.004 17.11.01.309-.017.625.053.928.076.2.239.31.426.395 1.235.559 1.225.842-.161.962-.786.028-1.594-.04-2.322-.352-.44-.198-.845-.533-1.022-.993a2.37 2.37 0 0 1-.131-.86c.006-5.765-.006-11.433.006-17.198-.39.002-.819.059-1.176-.134-.177-.093-.122-.469.064-.511.313-.1.6-.267.842-.492.818-.65 1.482-1.498 1.871-2.472.429-1.1.654-2.267.82-3.431.067-.468.254-.538.392-.518.132.02.216.113.236.554zm3.291-3.299c.223-.149.507-.117.763-.138.86-.066 1.72.016 2.58.037.245 0 .532.057.657.295.159.32.174.69.18 1.043-.067 2.067-.025 4.135-.037 6.204-.006 1.096.005 2.193.031 3.288.6-.502 1.26-.944 1.976-1.267.674-.292 1.466-.448 2.175-.18.61.214 1.2.576 1.543 1.141.495.79.571 1.75.587 2.66.017 3.597-.096 7.196.002 10.793.002 1.264-.004 2.53.003 3.793.014.252-.003.547.184.744.225.27.595.309.885.478.045.16.099.41-.1.488-.311.1-.648.053-.97.05-.786-.064-1.577-.103-2.363-.027-.537.02-1.092.099-1.616-.049-.205-.067-.201-.299-.129-.463.341-.19.83-.243.978-.663.097-.638.031-1.288.051-1.931-.002-4.458.05-8.916.04-13.374.009-.674-.066-1.411-.514-1.948-.303-.38-.87-.498-1.304-.289a2.735 2.735 0 0 0-1.192 1.061c-.21.325-.232.723-.228 1.098.006 4.483-.008 8.967.007 13.45.024.595.014 1.193.068 1.787.048.392.443.583.78.683.214.038.368.272.288.481-.058.142-.229.167-.361.185-.624.042-1.245-.055-1.868-.067-.89-.036-1.776.14-2.664.047-.175-.018-.404-.087-.413-.297.03-.369.466-.351.708-.512.292-.136.415-.461.41-.767.006-.942.07-1.883.041-2.826-.053-2.47-.022-4.94-.034-7.411-.056-2.23-.034-4.46-.038-6.691-.04-2.363-.083-4.728-.08-7.093-.011-.831.023-1.665-.02-2.496.002-.45-.45-.682-.823-.792-.23-.033-.393-.366-.183-.525zm-75.225-.152c.075-.09.196-.121.306-.143 1.052-.118 2.111-.031 3.166.005.283-.009.567.161.637.446.208.738.06 1.51.077 2.263.006 2.706-.03 5.412.028 8.118 1.067-1.542 3.366-2.33 5.205-.871.749.627.987 1.642 1.051 2.576.056 1.262.015 2.527.013 3.791-.014 2.122-.04 4.244-.018 6.366.057 1.556.022 3.114.032 4.67.008.338-.025.688.089 1.013.194.375.645.428.981.615.069.18.084.47-.161.513-.658.1-1.323-.032-1.983-.039-.863-.044-1.724.127-2.586.055-.158-.026-.353-.029-.452-.173-.095-.104-.01-.241.005-.356.33-.187.79-.233.962-.62.085-.272.058-.563.068-.844-.01-4.753.05-9.507.04-14.26.014-.752-.01-1.59-.517-2.195-.328-.413-.955-.502-1.403-.239-.695.37-1.341 1.053-1.316 1.891-.003 3.511 0 7.022-.002 10.533.005 1.615-.02 3.232.065 4.846.007.318.26.57.546.672.201.09.506.116.544.384.062.195-.117.353-.3.362-.647.064-1.294-.047-1.942-.058-.911-.039-1.822.154-2.731.038-.181-.013-.418-.167-.321-.376.084-.299.467-.266.681-.421.295-.138.42-.464.413-.772.008-.995.071-1.99.038-2.985-.07-3.06.019-6.123-.069-9.183v-4.833a358.396 358.396 0 0 1-.08-8.786c-.007-.32.02-.651-.067-.965-.14-.342-.518-.463-.836-.578-.179-.049-.298-.314-.163-.46zm34.22.506c1.303-.991 3.196-.66 4.577.045a4.75 4.75 0 0 1 2.24 2.446c.355.84.454 1.761.443 2.665-.01.938.019 1.877-.019 2.815-.059 1.25-.489 2.518-1.376 3.425-.586.595-1.26 1.12-2.025 1.462 1.405.377 2.776 1.158 3.546 2.429.49.803.515 1.77.574 2.683.09 1.607.102 3.218.1 4.827-.006 1.267.039 2.556-.294 3.79-.156.514-.394 1.011-.759 1.41-.8.835-1.986 1.152-3.107 1.226-2.741.203-3.584-2.398-1.853-3.572.196-.134 1.144-.36 1.698.354.097.124-.686-.271-1.137.213-1.186 1.272.338 2.714 1.416 2.032.384-.267.558-.73.651-1.168.164-.88.089-1.778.11-2.667-.004-2.419.146-4.846-.099-7.258-.137-1.065-.36-2.231-1.19-2.987-.606-.556-1.473-.601-2.252-.59-.405.02-.846-.067-1.218.13.013 4.32-.034 8.64.057 12.96.023.591.097 1.18.17 1.768.03.19-.003.382-.051.568-.278.153-.596.025-.894.04-.833.006-1.667-.019-2.5.021-.457.004-.933.077-1.376-.07l-.104-.24c.092-.42.608-.358.879-.598.341-.213.386-.643.382-1.008.002-8.565 0-17.13 0-25.695-.013-.309.012-.673-.221-.912-.21-.237-.521-.333-.81-.44-.243-.072-.301-.51-.022-.575.364-.092.744-.053 1.115-.045 1.02.056 2.042.015 3.063.033.382-.003.287.202.287.483zm.296.58c-.337.299-.26.792-.27 1.195.028 3.603.055 7.206.038 10.81.322.218.72.256 1.098.271.486.006.998-.052 1.42-.31.634-.474 1.01-1.214 1.14-1.985.161-.96.081-1.939.072-2.907-.025-1.502-.003-3.005-.013-4.507-.017-.669-.182-1.348-.546-1.916-.324-.526-.885-.94-1.52-.95-.48-.008-1.024-.015-1.419.299zM69.038 114.941c1.24-.16 2.541-.12 3.72.312.688.26 1.347.682 1.721 1.31.2.343.32.75.235 1.143-.049.243-.18.46-.279.684a357.671 357.671 0 0 0-1.994 4.413c-.038.12-.172.165-.273.224-.08.04-.162.073-.245.103l1.247-4.987-1.597 5.086-.055.011.216-3.182-.688 3.252-.02.002.037-5.571-.761 5.61h-.028l-.168-7.123-.37 7.105-.061-.005-.7-3.979.263 3.926-.021-.004-1.639-5.894 1.193 5.797c-.222-.064-.443-.151-.617-.299-.746-1.634-1.466-3.28-2.23-4.908-.243-.547-.048-1.18.31-1.635.662-.838 1.754-1.235 2.804-1.391zm-10.13 1.305c.485.052 1.073-.021 1.415.41.595.744.434 3.109-.396 3.016l-13.93-.141c-.325-.05-.747-.185-1.013-.413-.32-.274-.472-.691-.79-.97a5.73 5.73 0 0 1-.364-.034c-.823.027-3.121.055-3.792-.07 1.56 1.008 3.102 2.042 4.702 2.987a77.615 77.615 0 0 0 8.316 4.363c2.196.994 4.453 1.841 6.712 2.679.642.203 1.058.827 1.163 1.47.165 1.169-.703 2.414-1.892 2.57-.881.12-1.68-.37-2.464-.692-5.825-2.386-11.24-5.721-16.103-9.708a91.898 91.898 0 0 1-3.461-2.998c-.25-.226-.448-.513-.743-.683-.364-.096-.744-.043-1.116-.062-1.25-.05-2.505-.157-3.728-.432-.495-.116-1.018-.262-1.381-.642l-.02-.236c.083-.23.305-.365.546-.299 1.47.26 2.98.327 4.463.128.047-.32.13-.666.4-.876.152-.146.37-.162.568-.197.648.057 1.07.693 1.728.69l21.18.14zm.507.58l-14.043-.222c-.067.989.224 1.747.577 2.381-.134-.878.06-1.483.368-1.836 4.447.053 8.815.034 13.098-.324zm-1.087 12.041a.929.929 0 1 0-.157 1.852.929.929 0 0 0 .157-1.852zm22.934-12.621c-.485.052-1.073-.021-1.415.41-.595.745-.434 3.109.396 3.017l13.93-.142c.325-.05.747-.185 1.013-.413.32-.274.472-.691.79-.97.122-.006.243-.02.364-.034.822.027 3.121.055 3.792-.07-1.56 1.008-3.102 2.042-4.702 2.987a77.615 77.615 0 0 1-8.317 4.363c-2.195.994-4.452 1.841-6.71 2.679-.643.203-1.06.827-1.164 1.47-.165 1.169.703 2.414 1.892 2.57.881.12 1.68-.37 2.464-.692 5.825-2.386 11.24-5.721 16.103-9.708a91.898 91.898 0 0 0 3.461-2.998c.25-.226.448-.513.743-.683.363-.096.744-.043 1.116-.062 1.25-.05 2.505-.157 3.728-.432.495-.116 1.017-.262 1.381-.642l.02-.236c-.083-.23-.305-.365-.546-.299-1.47.26-2.981.327-4.463.128-.047-.32-.13-.666-.4-.876-.152-.146-.37-.162-.568-.197-.648.057-1.07.693-1.728.69l-21.18.14zm-.507.58l14.043-.222c.066.989-.224 1.747-.578 2.381.135-.878-.058-1.483-.367-1.836-4.447.053-8.815.034-13.098-.324zm1.087 12.041A.929.929 0 1 1 82 130.72a.929.929 0 0 1-.157-1.852zm-13.77-5.401c.306.206.662.32 1.023.386a6.86 6.86 0 0 0 2.319.01c.376-.066.751-.18 1.07-.396.447.29.89.693.973 1.247.098.696-.226 1.346-.452 1.983-.104.283-.176.59-.129.893.13.868.688 1.617.751 2.5.08.75-.234 1.537-.841 1.995-.76.587-1.761.729-2.696.705-.858-.021-1.766-.217-2.429-.796-.539-.462-.803-1.2-.732-1.9.062-.906.649-1.67.758-2.565.049-.42-.131-.817-.273-1.202-.201-.53-.41-1.098-.303-1.672.104-.528.531-.907.962-1.188zm-.037 1.77c.155.671.527 1.283.584 1.977.047.597-.174 1.168-.377 1.718-.176.477-.435.952-.392 1.48.016.472.33.895.745 1.105.598.311 1.297.382 1.962.335-.477-.04-.963-.146-1.365-.416-.327-.215-.564-.574-.59-.97-.06-.608.242-1.163.467-1.707.129-.466.32-.927.303-1.419-.02-.56-.252-1.08-.442-1.599-.112-.32-.238-.663-.141-1.005a3.958 3.958 0 0 1-.62-.177.743.743 0 0 0-.133.679z"/></g></svg>